<svg xmlns="http://www.w3.org/2000/svg" viewBox="0 0 160 160" role="img" aria-label="晨光黄卡通头像">
  <rect width="160" height="160" rx="42" fill="#fef9c3"/>
  <circle cx="80" cy="82" r="50" fill="#ffedd5"/>
  <path d="M40 67c8-27 29-42 54-35 18 5 29 20 31 41-19-12-39-16-60-11-9 2-17 4-25 5Z" fill="#eab308"/>
  <path d="M51 64c16-4 32-12 46-25" stroke="#ca8a04" stroke-width="8" stroke-linecap="round" fill="none"/>
  <circle cx="60" cy="85" r="7" fill="#0f172a"/>
  <circle cx="100" cy="85" r="7" fill="#0f172a"/>
  <path d="M68 106c7 6 18 6 25 0" fill="none" stroke="#0f172a" stroke-width="7" stroke-linecap="round"/>
  <circle cx="49" cy="97" r="8" fill="#fde68a"/>
  <circle cx="111" cy="97" r="8" fill="#fde68a"/>
</svg>
