<svg xmlns="http://www.w3.org/2000/svg" viewBox="0 0 160 160" role="img" aria-label="莓果粉卡通头像">
  <rect width="160" height="160" rx="42" fill="#fdf2f8"/>
  <circle cx="80" cy="82" r="50" fill="#fff1f2"/>
  <path d="M39 72c3-27 20-43 43-43 24 0 39 15 40 43-12-10-27-15-43-15-15 0-29 5-40 15Z" fill="#db2777"/>
  <path d="M57 51c9 8 27 9 45 2" stroke="#be185d" stroke-width="8" stroke-linecap="round" fill="none"/>
  <circle cx="61" cy="84" r="7" fill="#0f172a"/>
  <circle cx="100" cy="84" r="7" fill="#0f172a"/>
  <path d="M68 106c7 6 18 6 25 0" fill="none" stroke="#0f172a" stroke-width="7" stroke-linecap="round"/>
  <circle cx="49" cy="96" r="8" fill="#fbcfe8"/>
  <circle cx="111" cy="96" r="8" fill="#fbcfe8"/>
</svg>
